<svg width="22" height="22" viewBox="0 0 22 22" fill="none" xmlns="http://www.w3.org/2000/svg">
<path d="M14.4102 12.973L14.4058 9.17676C14.4048 8.84653 14.2732 8.5301 14.0397 8.29659C13.8062 8.06308 13.4898 7.93146 13.1595 7.93048L9.36325 7.92606C9.19814 7.92655 9.03992 7.99236 8.92317 8.10912C8.80641 8.22587 8.74061 8.38408 8.74011 8.5492C8.73978 8.63171 8.75578 8.71346 8.7872 8.78976C8.81861 8.86605 8.86483 8.93536 8.92317 8.9937C8.98151 9.05205 9.05082 9.09826 9.12712 9.12968C9.20341 9.16109 9.28516 9.1771 9.36767 9.17676H12.2756L7.41429 14.0381C7.29708 14.1553 7.23123 14.3143 7.23123 14.4801C7.23123 14.6458 7.29708 14.8048 7.41429 14.922C7.5315 15.0392 7.69047 15.1051 7.85623 15.1051C8.02199 15.1051 8.18096 15.0392 8.29817 14.922L13.1595 10.0606L13.1595 12.9686C13.1589 13.1345 13.2243 13.2938 13.3411 13.4115C13.458 13.5291 13.6168 13.5956 13.7827 13.5962C13.9485 13.5968 14.1078 13.5314 14.2255 13.4146C14.3432 13.2977 14.4096 13.1389 14.4102 12.973Z" fill="#C8C9CB"/>
</svg>
