<svg width="45" height="46" viewBox="0 0 45 46" fill="none" xmlns="http://www.w3.org/2000/svg">
<g clip-path="url(#clip0_46_584)">
<path d="M33.3562 12.1343C33.1805 12.3086 33.041 12.5159 32.9458 12.7444C32.8506 12.9729 32.8016 13.218 32.8016 13.4655C32.8016 13.713 32.8506 13.9581 32.9458 14.1866C33.041 14.4151 33.1805 14.6225 33.3562 14.7968L40.1625 21.603L1.875 21.603C1.37772 21.603 0.900805 21.8006 0.549174 22.1522C0.197543 22.5038 -5.48499e-07 22.9807 -5.26763e-07 23.478H-5.26763e-07C-5.05026e-07 23.9753 0.197544 24.4522 0.549174 24.8038C0.900805 25.1555 1.37772 25.353 1.875 25.353L40.1437 25.353L33.3562 32.1405C33.1365 32.3012 32.9544 32.5078 32.8226 32.746C32.6908 32.9842 32.6124 33.2483 32.5929 33.5198C32.5734 33.7914 32.6133 34.0639 32.7098 34.3184C32.8063 34.573 32.9571 34.8035 33.1516 34.9939C33.3462 35.1844 33.5799 35.3301 33.8365 35.4211C34.093 35.5121 34.3664 35.5461 34.6374 35.5208C34.9085 35.4955 35.1708 35.4115 35.4061 35.2746C35.6414 35.1377 35.844 34.9511 36 34.728L43.35 27.378C44.4034 26.3233 44.995 24.8936 44.995 23.403C44.995 21.9124 44.4034 20.4827 43.35 19.428L36 12.078C35.6413 11.7362 35.1619 11.5502 34.6665 11.5607C34.1711 11.5713 33.7001 11.7775 33.3562 12.1343Z" fill="#EDEDED"/>
</g>
<defs>
<clipPath id="clip0_46_584">
<rect width="45" height="45" fill="white" transform="translate(0 45.978) rotate(-90)"/>
</clipPath>
</defs>
</svg>
