<svg width="10" height="14" viewBox="0 0 10 14" fill="none" xmlns="http://www.w3.org/2000/svg">
<path d="M9.35939 1.46175C9.75252 0.827927 9.35848 0.0458157 8.61265 0.0500472C7.38818 0.0569948 5.91127 0.151643 5.30237 0.332615C4.36608 0.610887 3.50039 1.08679 2.76372 1.72819C2.02706 2.36959 1.43657 3.16157 1.03211 4.05066C0.627655 4.93975 0.418644 5.90526 0.419188 6.88203C0.419732 7.85879 0.629818 8.82408 1.03526 9.71272C1.44071 10.6014 2.03208 11.3927 2.76946 12.0333C3.50684 12.6738 4.37306 13.1488 5.30966 13.426C5.92223 13.6073 7.4126 13.7013 8.64112 13.7066C9.36996 13.7097 9.74783 12.94 9.35113 12.3286C7.25025 9.0905 7.2079 4.93051 9.24242 1.65034L9.35939 1.46175Z" fill="black"/>
</svg>
